<?xml version="1.0" encoding="UTF-8" standalone="no"?><svg xmlns="http://www.w3.org/2000/svg" xmlns:xlink="http://www.w3.org/1999/xlink" contentScriptType="application/ecmascript" contentStyleType="text/css" height="498px" preserveAspectRatio="none" style="width:402px;height:498px;background:#FFFFFF;" version="1.1" viewBox="0 0 402 498" width="402px" zoomAndPan="magnify"><defs><filter height="300%" id="frp4vk4pjditu" width="300%" x="-1" y="-1"><feGaussianBlur result="blurOut" stdDeviation="2.0"/><feColorMatrix in="blurOut" result="blurOut2" type="matrix" values="0 0 0 0 0 0 0 0 0 0 0 0 0 0 0 0 0 0 .4 0"/><feOffset dx="4.0" dy="4.0" in="blurOut2" result="blurOut3"/><feBlend in="SourceGraphic" in2="blurOut3" mode="normal"/></filter></defs><g><rect fill="#FFFFFF" filter="url(#frp4vk4pjditu)" height="295.5156" style="stroke:#A80036;stroke-width:1.0;" width="10" x="32.5" y="99.6094"/><rect fill="#FFFFFF" filter="url(#frp4vk4pjditu)" height="83.0547" style="stroke:#A80036;stroke-width:1.0;" width="10" x="188.5" y="99.6094"/><rect fill="#FFFFFF" filter="url(#frp4vk4pjditu)" height="121.4063" style="stroke:#A80036;stroke-width:1.0;" width="10" x="188.5" y="243.3672"/><rect fill="#FFFFFF" filter="url(#frp4vk4pjditu)" height="91.0547" style="stroke:#A80036;stroke-width:1.0;" width="10" x="375.5" y="152.3125"/><rect fill="#FFFFFF" filter="url(#frp4vk4pjditu)" height="91.0547" style="stroke:#A80036;stroke-width:1.0;" width="10" x="375.5" y="304.0703"/><line style="stroke:#A80036;stroke-width:1.0;stroke-dasharray:5.0,5.0;" x1="37" x2="37" y1="89.6094" y2="413.125"/><line style="stroke:#A80036;stroke-width:1.0;stroke-dasharray:5.0,5.0;" x1="193.5" x2="193.5" y1="89.6094" y2="413.125"/><line style="stroke:#A80036;stroke-width:1.0;stroke-dasharray:5.0,5.0;" x1="380" x2="380" y1="89.6094" y2="413.125"/><text fill="#000000" font-family="sans-serif" font-size="14" lengthAdjust="spacing" textLength="59" x="5" y="86.5332">Russland</text><ellipse cx="37.5" cy="15" fill="#FEFECE" filter="url(#frp4vk4pjditu)" rx="8" ry="8" style="stroke:#A80036;stroke-width:2.0;"/><path d="M37.5,23 L37.5,50 M24.5,31 L50.5,31 M37.5,50 L24.5,65 M37.5,50 L50.5,65 " fill="none" filter="url(#frp4vk4pjditu)" style="stroke:#A80036;stroke-width:2.0;"/><text fill="#000000" font-family="sans-serif" font-size="14" lengthAdjust="spacing" textLength="59" x="5" y="426.6582">Russland</text><ellipse cx="37.5" cy="439.7344" fill="#FEFECE" filter="url(#frp4vk4pjditu)" rx="8" ry="8" style="stroke:#A80036;stroke-width:2.0;"/><path d="M37.5,447.7344 L37.5,474.7344 M24.5,455.7344 L50.5,455.7344 M37.5,474.7344 L24.5,489.7344 M37.5,474.7344 L50.5,489.7344 " fill="none" filter="url(#frp4vk4pjditu)" style="stroke:#A80036;stroke-width:2.0;"/><text fill="#000000" font-family="sans-serif" font-size="14" lengthAdjust="spacing" textLength="48" x="166.5" y="86.5332">Ukraine</text><ellipse cx="193.5" cy="15" fill="#FEFECE" filter="url(#frp4vk4pjditu)" rx="8" ry="8" style="stroke:#A80036;stroke-width:2.0;"/><path d="M193.5,23 L193.5,50 M180.5,31 L206.5,31 M193.5,50 L180.5,65 M193.5,50 L206.5,65 " fill="none" filter="url(#frp4vk4pjditu)" style="stroke:#A80036;stroke-width:2.0;"/><text fill="#000000" font-family="sans-serif" font-size="14" lengthAdjust="spacing" textLength="48" x="166.5" y="426.6582">Ukraine</text><ellipse cx="193.5" cy="439.7344" fill="#FEFECE" filter="url(#frp4vk4pjditu)" rx="8" ry="8" style="stroke:#A80036;stroke-width:2.0;"/><path d="M193.5,447.7344 L193.5,474.7344 M180.5,455.7344 L206.5,455.7344 M193.5,474.7344 L180.5,489.7344 M193.5,474.7344 L206.5,489.7344 " fill="none" filter="url(#frp4vk4pjditu)" style="stroke:#A80036;stroke-width:2.0;"/><text fill="#000000" font-family="sans-serif" font-size="14" lengthAdjust="spacing" textLength="29" x="363" y="86.5332">Nato</text><ellipse cx="380.5" cy="15" fill="#FEFECE" filter="url(#frp4vk4pjditu)" rx="8" ry="8" style="stroke:#A80036;stroke-width:2.0;"/><path d="M380.5,23 L380.5,50 M367.5,31 L393.5,31 M380.5,50 L367.5,65 M380.5,50 L393.5,65 " fill="none" filter="url(#frp4vk4pjditu)" style="stroke:#A80036;stroke-width:2.0;"/><text fill="#000000" font-family="sans-serif" font-size="14" lengthAdjust="spacing" textLength="29" x="363" y="426.6582">Nato</text><ellipse cx="380.5" cy="439.7344" fill="#FEFECE" filter="url(#frp4vk4pjditu)" rx="8" ry="8" style="stroke:#A80036;stroke-width:2.0;"/><path d="M380.5,447.7344 L380.5,474.7344 M367.5,455.7344 L393.5,455.7344 M380.5,474.7344 L367.5,489.7344 M380.5,474.7344 L393.5,489.7344 " fill="none" filter="url(#frp4vk4pjditu)" style="stroke:#A80036;stroke-width:2.0;"/><rect fill="#FFFFFF" filter="url(#frp4vk4pjditu)" height="295.5156" style="stroke:#A80036;stroke-width:1.0;" width="10" x="32.5" y="99.6094"/><rect fill="#FFFFFF" filter="url(#frp4vk4pjditu)" height="83.0547" style="stroke:#A80036;stroke-width:1.0;" width="10" x="188.5" y="99.6094"/><rect fill="#FFFFFF" filter="url(#frp4vk4pjditu)" height="121.4063" style="stroke:#A80036;stroke-width:1.0;" width="10" x="188.5" y="243.3672"/><rect fill="#FFFFFF" filter="url(#frp4vk4pjditu)" height="91.0547" style="stroke:#A80036;stroke-width:1.0;" width="10" x="375.5" y="152.3125"/><rect fill="#FFFFFF" filter="url(#frp4vk4pjditu)" height="91.0547" style="stroke:#A80036;stroke-width:1.0;" width="10" x="375.5" y="304.0703"/><polygon fill="#A80036" points="176.5,117.9609,186.5,121.9609,176.5,125.9609,180.5,121.9609" style="stroke:#A80036;stroke-width:1.0;"/><line style="stroke:#A80036;stroke-width:1.0;" x1="42.5" x2="182.5" y1="121.9609" y2="121.9609"/><text fill="#000000" font-family="sans-serif" font-size="13" lengthAdjust="spacing" textLength="111" x="49.5" y="117.1045">Besetzung Gebiete</text><polygon fill="#A80036" points="53.5,148.3125,43.5,152.3125,53.5,156.3125,49.5,152.3125" style="stroke:#A80036;stroke-width:1.0;"/><line style="stroke:#A80036;stroke-width:1.0;" x1="47.5" x2="187.5" y1="152.3125" y2="152.3125"/><text fill="#000000" font-family="sans-serif" font-size="13" lengthAdjust="spacing" textLength="122" x="59.5" y="147.4561">Einfrieren von Konten</text><polygon fill="#A80036" points="204.5,178.6641,194.5,182.6641,204.5,186.6641,200.5,182.6641" style="stroke:#A80036;stroke-width:1.0;"/><line style="stroke:#A80036;stroke-width:1.0;" x1="198.5" x2="374.5" y1="182.6641" y2="182.6641"/><text fill="#000000" font-family="sans-serif" font-size="13" lengthAdjust="spacing" textLength="130" x="210.5" y="177.8076">Versichert Solidarität</text><polygon fill="#A80036" points="53.5,209.0156,43.5,213.0156,53.5,217.0156,49.5,213.0156" style="stroke:#A80036;stroke-width:1.0;"/><line style="stroke:#A80036;stroke-width:1.0;" x1="47.5" x2="374.5" y1="213.0156" y2="213.0156"/><text fill="#000000" font-family="sans-serif" font-size="13" lengthAdjust="spacing" textLength="147" x="59.5" y="208.1592">Verhängung Sanktionen</text><polygon fill="#A80036" points="368.5,239.3672,378.5,243.3672,368.5,247.3672,372.5,243.3672" style="stroke:#A80036;stroke-width:1.0;"/><line style="stroke:#A80036;stroke-width:1.0;" x1="42.5" x2="374.5" y1="243.3672" y2="243.3672"/><text fill="#000000" font-family="sans-serif" font-size="13" lengthAdjust="spacing" textLength="62" x="49.5" y="238.5107">Drohungen</text><polygon fill="#A80036" points="176.5,269.7188,186.5,273.7188,176.5,277.7188,180.5,273.7188" style="stroke:#A80036;stroke-width:1.0;"/><line style="stroke:#A80036;stroke-width:1.0;" x1="42.5" x2="182.5" y1="273.7188" y2="273.7188"/><text fill="#000000" font-family="sans-serif" font-size="13" lengthAdjust="spacing" textLength="104" x="49.5" y="268.8623">Raketenbeschuss</text><polygon fill="#A80036" points="53.5,300.0703,43.5,304.0703,53.5,308.0703,49.5,304.0703" style="stroke:#A80036;stroke-width:1.0;"/><line style="stroke:#A80036;stroke-width:1.0;" x1="47.5" x2="187.5" y1="304.0703" y2="304.0703"/><text fill="#000000" font-family="sans-serif" font-size="13" lengthAdjust="spacing" textLength="69" x="59.5" y="299.2139">Verurteilung</text><polygon fill="#A80036" points="363.5,330.4219,373.5,334.4219,363.5,338.4219,367.5,334.4219" style="stroke:#A80036;stroke-width:1.0;"/><line style="stroke:#A80036;stroke-width:1.0;" x1="198.5" x2="369.5" y1="334.4219" y2="334.4219"/><text fill="#000000" font-family="sans-serif" font-size="13" lengthAdjust="spacing" textLength="78" x="205.5" y="329.5654">Bitte um Hilfe</text><polygon fill="#A80036" points="204.5,360.7734,194.5,364.7734,204.5,368.7734,200.5,364.7734" style="stroke:#A80036;stroke-width:1.0;"/><line style="stroke:#A80036;stroke-width:1.0;" x1="198.5" x2="374.5" y1="364.7734" y2="364.7734"/><text fill="#000000" font-family="sans-serif" font-size="13" lengthAdjust="spacing" textLength="153" x="210.5" y="359.917">Sichert Unterstüzung zu</text><polygon fill="#A80036" points="48.5,391.125,38.5,395.125,48.5,399.125,44.5,395.125" style="stroke:#A80036;stroke-width:1.0;"/><line style="stroke:#A80036;stroke-width:1.0;" x1="42.5" x2="379.5" y1="395.125" y2="395.125"/><text fill="#000000" font-family="sans-serif" font-size="13" lengthAdjust="spacing" textLength="114" x="54.5" y="390.2686">Weitere Sanktionen</text><!--MD5=[d218e1463942fd52d98eb94ffbc33e72]
@startuml

actor Russland as ru
actor Ukraine as ukr
actor Nato as nato

activate ru
activate ukr
ru -> ukr : Besetzung Gebiete
ukr -> ru : Einfrieren von Konten
activate nato
nato -> ukr : Versichert Solidarität
deactivate ukr
nato -> ru : Verhängung Sanktionen
ru -> nato : Drohungen
deactivate nato
activate ukr
ru -> ukr : Raketenbeschuss
ukr -> ru : Verurteilung
activate nato
ukr -> nato : Bitte um Hilfe
nato -> ukr : Sichert Unterstüzung zu
deactivate ukr
nato -> ru : Weitere Sanktionen
deactivate ru
deactivate nato

@enduml

PlantUML version 1.2022.1(Tue Feb 01 19:19:58 CET 2022)
(LGPL source distribution)
Java Runtime: Java(TM) SE Runtime Environment
JVM: Java HotSpot(TM) Client VM
Default Encoding: Cp1252
Language: de
Country: DE
--></g></svg>