<?xml version="1.0" encoding="UTF-8" standalone="no"?><svg xmlns="http://www.w3.org/2000/svg" xmlns:xlink="http://www.w3.org/1999/xlink" contentScriptType="application/ecmascript" contentStyleType="text/css" height="367px" preserveAspectRatio="none" style="width:739px;height:367px;background:#FFFFFF;" version="1.1" viewBox="0 0 739 367" width="739px" zoomAndPan="magnify"><defs><filter height="300%" id="f8x4urx0pu1u0" width="300%" x="-1" y="-1"><feGaussianBlur result="blurOut" stdDeviation="2.0"/><feColorMatrix in="blurOut" result="blurOut2" type="matrix" values="0 0 0 0 0 0 0 0 0 0 0 0 0 0 0 0 0 0 .4 0"/><feOffset dx="4.0" dy="4.0" in="blurOut2" result="blurOut3"/><feBlend in="SourceGraphic" in2="blurOut3" mode="normal"/></filter></defs><g><rect fill="#FEFECE" filter="url(#f8x4urx0pu1u0)" height="37.6094" rx="12.5" ry="12.5" style="stroke:#A80036;stroke-width:1.5;" width="117" x="306" y="164.0234"/><text fill="#000000" font-family="sans-serif" font-size="14" lengthAdjust="spacing" textLength="97" x="316" y="188.5566">Dateiendungen</text><rect fill="#FEFECE" filter="url(#f8x4urx0pu1u0)" height="37.6094" rx="12.5" ry="12.5" style="stroke:#A80036;stroke-width:1.5;" width="142" x="473" y="164.0234"/><text fill="#000000" font-family="sans-serif" font-size="14" lengthAdjust="spacing" textLength="122" x="483" y="188.5566">Textdateiendungen</text><rect fill="#FEFECE" filter="url(#f8x4urx0pu1u0)" height="37.6094" rx="12.5" ry="12.5" style="stroke:#A80036;stroke-width:1.5;" width="50" x="665" y="77.6094"/><text fill="#000000" font-family="sans-serif" font-size="14" lengthAdjust="spacing" textLength="30" x="675" y="102.1426">ODT</text><path d="M615,182.8281 L625,182.8281 C640,182.8281 640,96.4141 655,96.4141 L665,96.4141 " fill="none" style="stroke:#A80036;stroke-width:1.0;"/><rect fill="#FEFECE" filter="url(#f8x4urx0pu1u0)" height="37.6094" rx="12.5" ry="12.5" style="stroke:#A80036;stroke-width:1.5;" width="59" x="665" y="135.2188"/><text fill="#000000" font-family="sans-serif" font-size="14" lengthAdjust="spacing" textLength="39" x="675" y="159.752">DOCX</text><path d="M615,182.8281 L625,182.8281 C640,182.8281 640,154.0234 655,154.0234 L665,154.0234 " fill="none" style="stroke:#A80036;stroke-width:1.0;"/><rect fill="#FEFECE" filter="url(#f8x4urx0pu1u0)" height="37.6094" rx="12.5" ry="12.5" style="stroke:#A80036;stroke-width:1.5;" width="48" x="665" y="192.8281"/><text fill="#000000" font-family="sans-serif" font-size="14" lengthAdjust="spacing" textLength="28" x="675" y="217.3613">PDF</text><path d="M615,182.8281 L625,182.8281 C640,182.8281 640,211.6328 655,211.6328 L665,211.6328 " fill="none" style="stroke:#A80036;stroke-width:1.0;"/><rect fill="#FEFECE" filter="url(#f8x4urx0pu1u0)" height="37.6094" rx="12.5" ry="12.5" style="stroke:#A80036;stroke-width:1.5;" width="46" x="665" y="250.4375"/><text fill="#000000" font-family="sans-serif" font-size="14" lengthAdjust="spacing" textLength="26" x="675" y="274.9707">TXT</text><path d="M615,182.8281 L625,182.8281 C640,182.8281 640,269.2422 655,269.2422 L665,269.2422 " fill="none" style="stroke:#A80036;stroke-width:1.0;"/><path d="M423,182.8281 L433,182.8281 C448,182.8281 448,182.8281 463,182.8281 L473,182.8281 " fill="none" style="stroke:#A80036;stroke-width:1.0;"/><rect fill="#FEFECE" filter="url(#f8x4urx0pu1u0)" height="37.6094" rx="12.5" ry="12.5" style="stroke:#A80036;stroke-width:1.5;" width="138" x="118" y="164.0234"/><text fill="#000000" font-family="sans-serif" font-size="14" lengthAdjust="spacing" textLength="118" x="128" y="188.5566">Bilddateiendungen</text><rect fill="#FEFECE" filter="url(#f8x4urx0pu1u0)" height="37.6094" rx="12.5" ry="12.5" style="stroke:#A80036;stroke-width:1.5;" width="49" x="19" y="20"/><text fill="#000000" font-family="sans-serif" font-size="14" lengthAdjust="spacing" textLength="29" x="29" y="44.5332">PNG</text><path d="M118,182.8281 L108,182.8281 C93,182.8281 93,38.8047 78,38.8047 L68,38.8047 " fill="none" style="stroke:#A80036;stroke-width:1.0;"/><rect fill="#FEFECE" filter="url(#f8x4urx0pu1u0)" height="37.6094" rx="12.5" ry="12.5" style="stroke:#A80036;stroke-width:1.5;" width="43" x="25" y="77.6094"/><text fill="#000000" font-family="sans-serif" font-size="14" lengthAdjust="spacing" textLength="23" x="35" y="102.1426">GIF</text><path d="M118,182.8281 L108,182.8281 C93,182.8281 93,96.4141 78,96.4141 L68,96.4141 " fill="none" style="stroke:#A80036;stroke-width:1.0;"/><rect fill="#FEFECE" filter="url(#f8x4urx0pu1u0)" height="37.6094" rx="12.5" ry="12.5" style="stroke:#A80036;stroke-width:1.5;" width="58" x="10" y="135.2188"/><text fill="#000000" font-family="sans-serif" font-size="14" lengthAdjust="spacing" textLength="38" x="20" y="159.752">WebP</text><path d="M118,182.8281 L108,182.8281 C93,182.8281 93,154.0234 78,154.0234 L68,154.0234 " fill="none" style="stroke:#A80036;stroke-width:1.0;"/><rect fill="#FEFECE" filter="url(#f8x4urx0pu1u0)" height="37.6094" rx="12.5" ry="12.5" style="stroke:#A80036;stroke-width:1.5;" width="55" x="13" y="192.8281"/><text fill="#000000" font-family="sans-serif" font-size="14" lengthAdjust="spacing" textLength="35" x="23" y="217.3613">JPEG</text><path d="M118,182.8281 L108,182.8281 C93,182.8281 93,211.6328 78,211.6328 L68,211.6328 " fill="none" style="stroke:#A80036;stroke-width:1.0;"/><rect fill="#FEFECE" filter="url(#f8x4urx0pu1u0)" height="37.6094" rx="12.5" ry="12.5" style="stroke:#A80036;stroke-width:1.5;" width="50" x="18" y="250.4375"/><text fill="#000000" font-family="sans-serif" font-size="14" lengthAdjust="spacing" textLength="30" x="28" y="274.9707">TIFF</text><path d="M118,182.8281 L108,182.8281 C93,182.8281 93,269.2422 78,269.2422 L68,269.2422 " fill="none" style="stroke:#A80036;stroke-width:1.0;"/><rect fill="#FEFECE" filter="url(#f8x4urx0pu1u0)" height="37.6094" rx="12.5" ry="12.5" style="stroke:#A80036;stroke-width:1.5;" width="49" x="19" y="308.0469"/><text fill="#000000" font-family="sans-serif" font-size="14" lengthAdjust="spacing" textLength="29" x="29" y="332.5801">SVG</text><path d="M118,182.8281 L108,182.8281 C93,182.8281 93,326.8516 78,326.8516 L68,326.8516 " fill="none" style="stroke:#A80036;stroke-width:1.0;"/><path d="M306,182.8281 L296,182.8281 C281,182.8281 281,182.8281 266,182.8281 L256,182.8281 " fill="none" style="stroke:#A80036;stroke-width:1.0;"/><!--MD5=[62707095f9fba3ed403b6e136793b6d5]
@startmindmap
+ Dateiendungen
++ Textdateiendungen
+++ ODT
+++ DOCX
+++ PDF
+++ TXT
- - Bilddateiendungen
- - - PNG
- - - GIF
- - - WebP
- - - JPEG
- - - TIFF
- - - SVG
@endmindmap

PlantUML version 1.2022.1(Tue Feb 01 19:19:58 CET 2022)
(LGPL source distribution)
Java Runtime: Java(TM) SE Runtime Environment
JVM: Java HotSpot(TM) Client VM
Default Encoding: Cp1252
Language: de
Country: DE
--></g></svg>