<?xml version="1.0" encoding="UTF-8" standalone="no"?><svg xmlns="http://www.w3.org/2000/svg" xmlns:xlink="http://www.w3.org/1999/xlink" contentScriptType="application/ecmascript" contentStyleType="text/css" height="56px" preserveAspectRatio="none" style="width:590px;height:56px;background:#FFFFFF;" version="1.1" viewBox="0 0 590 56" width="590px" zoomAndPan="magnify"><defs><filter height="300%" id="fmg6356yvvnv7" width="300%" x="-1" y="-1"><feGaussianBlur result="blurOut" stdDeviation="2.0"/><feColorMatrix in="blurOut" result="blurOut2" type="matrix" values="0 0 0 0 0 0 0 0 0 0 0 0 0 0 0 0 0 0 .4 0"/><feOffset dx="4.0" dy="4.0" in="blurOut2" result="blurOut3"/><feBlend in="SourceGraphic" in2="blurOut3" mode="normal"/></filter></defs><g><rect fill="#CD853F" filter="url(#fmg6356yvvnv7)" height="35.0938" rx="12.5" ry="12.5" style="stroke:#A80036;stroke-width:1.5;" width="63" x="7" y="7"/><text fill="#000000" font-family="sans-serif" font-size="12" lengthAdjust="spacing" textLength="43" x="17" y="29.457">Aktion 1</text><rect fill="#808000" filter="url(#fmg6356yvvnv7)" height="35.0938" rx="12.5" ry="12.5" style="stroke:#A80036;stroke-width:1.5;" width="55" x="95" y="7"/><text fill="#000000" font-family="sans-serif" font-size="12" lengthAdjust="spacing" textLength="35" x="105" y="29.457">Objekt</text><rect fill="#CD853F" filter="url(#fmg6356yvvnv7)" height="35.0938" rx="12.5" ry="12.5" style="stroke:#A80036;stroke-width:1.5;" width="63" x="175" y="7"/><text fill="#000000" font-family="sans-serif" font-size="12" lengthAdjust="spacing" textLength="43" x="185" y="29.457">Aktion 2</text><rect fill="#CD853F" filter="url(#fmg6356yvvnv7)" height="35.0938" rx="12.5" ry="12.5" style="stroke:#A80036;stroke-width:1.5;" width="100" x="258.5" y="7"/><text fill="#000000" font-family="sans-serif" font-size="12" lengthAdjust="spacing" textLength="80" x="268.5" y="29.457">Cocktail mixen</text><rect fill="#808000" filter="url(#fmg6356yvvnv7)" height="35.0938" rx="12.5" ry="12.5" style="stroke:#A80036;stroke-width:1.5;" width="64" x="383.5" y="7"/><text fill="#000000" font-family="sans-serif" font-size="12" lengthAdjust="spacing" textLength="44" x="393.5" y="29.457">Cocktail</text><rect fill="#CD853F" filter="url(#fmg6356yvvnv7)" height="35.0938" rx="12.5" ry="12.5" style="stroke:#A80036;stroke-width:1.5;" width="104" x="472.5" y="7"/><text fill="#000000" font-family="sans-serif" font-size="12" lengthAdjust="spacing" textLength="84" x="482.5" y="29.457">Cocktail trinken</text><!--MD5=[27542db4736df2da2fba413631c2e3c9]
link Aktion 1 to Objekt--><path d="M70.26,24.5 C76.57,24.5 83.22,24.5 89.57,24.5 " fill="none" id="Aktion 1-to-Objekt" style="stroke:#A80036;stroke-width:1.0;"/><polygon fill="#A80036" points="94.83,24.5,85.83,20.5,89.83,24.5,85.83,28.5,94.83,24.5" style="stroke:#A80036;stroke-width:1.0;"/><text fill="#000000" font-family="sans-serif" font-size="11" lengthAdjust="spacing" textLength="0" x="84" y="18.9189"/><!--MD5=[833c9501c2c7284fe103c201e8f35b34]
link Objekt to Aktion 2--><path d="M150,24.5 C156.33,24.5 163.16,24.5 169.81,24.5 " fill="none" id="Objekt-to-Aktion 2" style="stroke:#A80036;stroke-width:1.0;"/><polygon fill="#A80036" points="174.85,24.5,165.85,20.5,169.85,24.5,165.85,28.5,174.85,24.5" style="stroke:#A80036;stroke-width:1.0;"/><text fill="#000000" font-family="sans-serif" font-size="11" lengthAdjust="spacing" textLength="0" x="164" y="18.9189"/><!--MD5=[9e46e775c573eb1cd86451f83522e220]
link Cocktail mixen to Cocktail--><path d="M358.55,24.5 C365.18,24.5 371.88,24.5 378.24,24.5 " fill="none" id="Cocktail mixen-to-Cocktail" style="stroke:#A80036;stroke-width:1.0;"/><polygon fill="#A80036" points="383.5,24.5,374.5,20.5,378.5,24.5,374.5,28.5,383.5,24.5" style="stroke:#A80036;stroke-width:1.0;"/><text fill="#000000" font-family="sans-serif" font-size="11" lengthAdjust="spacing" textLength="0" x="372.5" y="18.9189"/><!--MD5=[d74f9e50cdfc67a605ffd26777b59154]
link Cocktail to Cocktail trinken--><path d="M447.61,24.5 C453.82,24.5 460.49,24.5 467.22,24.5 " fill="none" id="Cocktail-to-Cocktail trinken" style="stroke:#A80036;stroke-width:1.0;"/><polygon fill="#A80036" points="472.37,24.5,463.37,20.5,467.37,24.5,463.37,28.5,472.37,24.5" style="stroke:#A80036;stroke-width:1.0;"/><text fill="#000000" font-family="sans-serif" font-size="11" lengthAdjust="spacing" textLength="0" x="461.5" y="18.9189"/><!--MD5=[5525f3f681119fe5cc1c1d356d378d8a]
@startuml
skinparam activity{
BackgroundColor Peru
BackgroundColor<< Begin >> Olive
}
"Aktion 1" -right->[ ] "Objekt" << Begin >> 
-right->[ ] "Aktion 2" << End >>

skinparam activity{
BackgroundColor Peru
BackgroundColor<< Begin >> Olive
}
"Cocktail mixen" -right->[ ] "Cocktail" << Begin >> 
-right->[ ] "Cocktail trinken" << End >>
@enduml

PlantUML version 1.2022.1(Tue Feb 01 19:19:58 CET 2022)
(LGPL source distribution)
Java Runtime: Java(TM) SE Runtime Environment
JVM: Java HotSpot(TM) Client VM
Default Encoding: Cp1252
Language: de
Country: DE
--></g></svg>