<?xml version="1.0" encoding="UTF-8" standalone="no"?><svg xmlns="http://www.w3.org/2000/svg" xmlns:xlink="http://www.w3.org/1999/xlink" contentScriptType="application/ecmascript" contentStyleType="text/css" height="206px" preserveAspectRatio="none" style="width:280px;height:206px;background:#FFFFFF;" version="1.1" viewBox="0 0 280 206" width="280px" zoomAndPan="magnify"><defs><filter height="300%" id="f178efeop376oq" width="300%" x="-1" y="-1"><feGaussianBlur result="blurOut" stdDeviation="2.0"/><feColorMatrix in="blurOut" result="blurOut2" type="matrix" values="0 0 0 0 0 0 0 0 0 0 0 0 0 0 0 0 0 0 .4 0"/><feOffset dx="4.0" dy="4.0" in="blurOut2" result="blurOut3"/><feBlend in="SourceGraphic" in2="blurOut3" mode="normal"/></filter></defs><g><ellipse cx="138.5" cy="16" fill="#000000" filter="url(#f178efeop376oq)" rx="10" ry="10" style="stroke:none;stroke-width:1.0;"/><rect fill="#FEFECE" filter="url(#f178efeop376oq)" height="35.0938" rx="12.5" ry="12.5" style="stroke:#A80036;stroke-width:1.5;" width="45" x="116" y="67"/><text fill="#000000" font-family="sans-serif" font-size="12" lengthAdjust="spacing" textLength="25" x="126" y="89.457">New</text><rect fill="#FEFECE" filter="url(#f178efeop376oq)" height="35.0938" rx="12.5" ry="12.5" style="stroke:#A80036;stroke-width:1.5;" width="139" x="7" y="157"/><text fill="#000000" font-family="sans-serif" font-size="12" lengthAdjust="spacing" textLength="119" x="17" y="179.457">Assigned / Reopened</text><rect fill="#FEFECE" filter="url(#f178efeop376oq)" height="35.0938" rx="12.5" ry="12.5" style="stroke:#A80036;stroke-width:1.5;" width="60" x="206.5" y="157"/><text fill="#000000" font-family="sans-serif" font-size="12" lengthAdjust="spacing" textLength="40" x="216.5" y="179.457">Closed</text><!--MD5=[6fd15617eb10ce591c41e8ad086ed145]
link start to New--><path d="M138.5,26.25 C138.5,35.43 138.5,49.84 138.5,61.9 " fill="none" id="start-to-New" style="stroke:#A80036;stroke-width:1.0;"/><polygon fill="#A80036" points="138.5,66.91,142.5,57.91,138.5,61.91,134.5,57.91,138.5,66.91" style="stroke:#A80036;stroke-width:1.0;"/><!--MD5=[1fa56bdd45565d0dd299b49e8c28e891]
link New to Assigned / Reopened--><path d="M115.96,92.32 C101.9,97.88 84.93,107.25 76.5,122 C71.48,130.78 70.9,141.85 71.81,151.47 " fill="none" id="New-to-Assigned / Reopened" style="stroke:#A80036;stroke-width:1.0;"/><polygon fill="#A80036" points="72.45,156.65,75.3128,147.2264,71.8351,151.688,67.3736,148.2102,72.45,156.65" style="stroke:#A80036;stroke-width:1.0;"/><text fill="#000000" font-family="sans-serif" font-size="11" lengthAdjust="spacing" textLength="35" x="77.5" y="134.4189">Accept</text><!--MD5=[78a0ca50c69ee931783666078d6534c7]
reverse link New to Assigned / Reopened--><path d="M130.59,106.99 C126.53,116.62 121.05,127.85 114.5,137 C109.39,144.14 102.77,151.06 96.49,156.92 " fill="none" id="New-backto-Assigned / Reopened" style="stroke:#A80036;stroke-width:1.0;"/><polygon fill="#A80036" points="132.58,102.12,125.4619,108.9268,130.6813,106.7455,132.8627,111.9648,132.58,102.12" style="stroke:#A80036;stroke-width:1.0;"/><text fill="#000000" font-family="sans-serif" font-size="11" lengthAdjust="spacing" textLength="45" x="124.5" y="134.4189">Reassign</text><!--MD5=[558855de990b0353461fc6fe71149219]
link Assigned / Reopened to Closed--><path d="M146.21,174.5 C165.13,174.5 184.82,174.5 200.97,174.5 " fill="none" id="Assigned / Reopened-to-Closed" style="stroke:#A80036;stroke-width:1.0;"/><polygon fill="#A80036" points="206.31,174.5,197.31,170.5,201.31,174.5,197.31,178.5,206.31,174.5" style="stroke:#A80036;stroke-width:1.0;"/><text fill="#000000" font-family="sans-serif" font-size="11" lengthAdjust="spacing" textLength="39" x="156.75" y="168.9189">Resolve</text><!--MD5=[326c0a46f17524eef647492e10c64bc0]
reverse link Assigned / Reopened to Closed--><path d="M142.46,192.89 C159.86,195.45 178.58,196.13 195.75,192.5 C199.23,191.77 202.78,190.72 206.25,189.48 " fill="none" id="Assigned / Reopened-backto-Closed" style="stroke:#A80036;stroke-width:1.0;"/><polygon fill="#A80036" points="137.1,192.04,145.3604,197.4033,142.038,192.8249,146.6164,189.5025,137.1,192.04" style="stroke:#A80036;stroke-width:1.0;"/><text fill="#000000" font-family="sans-serif" font-size="11" lengthAdjust="spacing" textLength="37" x="157.75" y="189.9189">Reopen</text><!--MD5=[df9904782dd69362a9ae77cb215cae87]
link New to Closed--><path d="M156.93,102.05 C173.12,116.59 196.71,137.78 214.01,153.3 " fill="none" id="New-to-Closed" style="stroke:#A80036;stroke-width:1.0;"/><polygon fill="#A80036" points="217.82,156.72,213.7891,147.7338,214.0972,153.3823,208.4487,153.6904,217.82,156.72" style="stroke:#A80036;stroke-width:1.0;"/><text fill="#000000" font-family="sans-serif" font-size="11" lengthAdjust="spacing" textLength="39" x="194.5" y="134.4189">Resolve</text><!--MD5=[bfb6cfa1985b44abd634c4d84ffb97ba]
@startuml
(*) -down-> "New" 
"New" -down->[Accept] "Assigned / Reopened"
"Assigned / Reopened" -up->[Reassign] "New"
"Assigned / Reopened" -right->[Resolve] "Closed"
"Closed" -left->[Reopen] "Assigned / Reopened"
"New" -right->[Resolve] "Closed"
@enduml

PlantUML version 1.2022.1(Tue Feb 01 19:19:58 CET 2022)
(LGPL source distribution)
Java Runtime: Java(TM) SE Runtime Environment
JVM: Java HotSpot(TM) Client VM
Default Encoding: Cp1252
Language: de
Country: DE
--></g></svg>