<?xml version="1.0" encoding="UTF-8" standalone="no"?><svg xmlns="http://www.w3.org/2000/svg" xmlns:xlink="http://www.w3.org/1999/xlink" contentScriptType="application/ecmascript" contentStyleType="text/css" height="338px" preserveAspectRatio="none" style="width:153px;height:338px;background:#FFFFFF;" version="1.1" viewBox="0 0 153 338" width="153px" zoomAndPan="magnify"><defs><filter height="300%" id="f15nkdfi7tryk9" width="300%" x="-1" y="-1"><feGaussianBlur result="blurOut" stdDeviation="2.0"/><feColorMatrix in="blurOut" result="blurOut2" type="matrix" values="0 0 0 0 0 0 0 0 0 0 0 0 0 0 0 0 0 0 .4 0"/><feOffset dx="4.0" dy="4.0" in="blurOut2" result="blurOut3"/><feBlend in="SourceGraphic" in2="blurOut3" mode="normal"/></filter></defs><g><rect fill="#FEFECE" filter="url(#f15nkdfi7tryk9)" height="35.0938" rx="12.5" ry="12.5" style="stroke:#A80036;stroke-width:1.5;" width="117" x="15" y="11"/><text fill="#000000" font-family="sans-serif" font-size="12" lengthAdjust="spacing" textLength="97" x="25" y="33.457">Getränk bestellen</text><rect fill="#FEFECE" filter="url(#f15nkdfi7tryk9)" height="35.0938" style="stroke:#A80036;stroke-width:1.5;" width="23" x="62" y="66.0938"/><line style="stroke:#A80036;stroke-width:1.5;" x1="67" x2="67" y1="66.0938" y2="101.1875"/><line style="stroke:#A80036;stroke-width:1.5;" x1="80" x2="80" y1="66.0938" y2="101.1875"/><text fill="#000000" font-family="sans-serif" font-size="12" lengthAdjust="spacing" textLength="0" x="75" y="88.5508"/><rect fill="#FEFECE" filter="url(#f15nkdfi7tryk9)" height="35.0938" rx="12.5" ry="12.5" style="stroke:#A80036;stroke-width:1.5;" width="103" x="22" y="121.1875"/><text fill="#000000" font-family="sans-serif" font-size="12" lengthAdjust="spacing" textLength="83" x="32" y="143.6445">Flasche Öffnen</text><rect fill="#FEFECE" filter="url(#f15nkdfi7tryk9)" height="35.0938" rx="12.5" ry="12.5" style="stroke:#A80036;stroke-width:1.5;" width="125" x="11" y="176.2813"/><text fill="#000000" font-family="sans-serif" font-size="12" lengthAdjust="spacing" textLength="105" x="21" y="198.7383">Flasche austrinken</text><rect fill="#FEFECE" filter="url(#f15nkdfi7tryk9)" height="35.0938" style="stroke:#A80036;stroke-width:1.5;" width="23" x="62" y="231.375"/><line style="stroke:#A80036;stroke-width:1.5;" x1="67" x2="67" y1="231.375" y2="266.4688"/><line style="stroke:#A80036;stroke-width:1.5;" x1="80" x2="80" y1="231.375" y2="266.4688"/><text fill="#000000" font-family="sans-serif" font-size="12" lengthAdjust="spacing" textLength="0" x="75" y="253.832"/><rect fill="#FEFECE" filter="url(#f15nkdfi7tryk9)" height="35.0938" rx="12.5" ry="12.5" style="stroke:#A80036;stroke-width:1.5;" width="104" x="21.5" y="286.4688"/><text fill="#000000" font-family="sans-serif" font-size="12" lengthAdjust="spacing" textLength="84" x="31.5" y="308.9258">Cocktail trinken</text><line style="stroke:#A80036;stroke-width:1.5;" x1="73.5" x2="73.5" y1="46.0938" y2="66.0938"/><polygon fill="#A80036" points="69.5,56.0938,73.5,66.0938,77.5,56.0938,73.5,60.0938" style="stroke:#A80036;stroke-width:1.0;"/><line style="stroke:#000000;stroke-width:1.5;stroke-dasharray:1.0,3.0;" x1="73.5" x2="73.5" y1="101.1875" y2="121.1875"/><polygon fill="#000000" points="69.5,111.1875,73.5,121.1875,77.5,111.1875,73.5,115.1875" style="stroke:#000000;stroke-width:1.0;"/><line style="stroke:#A80036;stroke-width:1.5;" x1="73.5" x2="73.5" y1="156.2813" y2="176.2813"/><polygon fill="#A80036" points="69.5,166.2813,73.5,176.2813,77.5,166.2813,73.5,170.2813" style="stroke:#A80036;stroke-width:1.0;"/><line style="stroke:#A80036;stroke-width:1.5;" x1="73.5" x2="73.5" y1="211.375" y2="231.375"/><polygon fill="#A80036" points="69.5,221.375,73.5,231.375,77.5,221.375,73.5,225.375" style="stroke:#A80036;stroke-width:1.0;"/><line style="stroke:#A80036;stroke-width:1.5;" x1="73.5" x2="73.5" y1="266.4688" y2="286.4688"/><polygon fill="#A80036" points="69.5,276.4688,73.5,286.4688,77.5,276.4688,73.5,280.4688" style="stroke:#A80036;stroke-width:1.0;"/><!--MD5=[6f644ad4402321a8558171ac23a72f4f]
@startuml
:Getr&#228;nk bestellen;
:|
-[#black,dotted]->
:Flasche &#214;ffnen;
:Flasche austrinken;
:|
:Cocktail trinken;
@enduml

PlantUML version 1.2022.1(Tue Feb 01 19:19:58 CET 2022)
(LGPL source distribution)
Java Runtime: Java(TM) SE Runtime Environment
JVM: Java HotSpot(TM) Client VM
Default Encoding: Cp1252
Language: de
Country: DE
--></g></svg>