<?xml version="1.0" encoding="UTF-8" standalone="no"?><svg xmlns="http://www.w3.org/2000/svg" xmlns:xlink="http://www.w3.org/1999/xlink" contentScriptType="application/ecmascript" contentStyleType="text/css" height="534px" preserveAspectRatio="none" style="width:229px;height:534px;background:#FFFFFF;" version="1.1" viewBox="0 0 229 534" width="229px" zoomAndPan="magnify"><defs><filter height="300%" id="fryj58kx93wuz" width="300%" x="-1" y="-1"><feGaussianBlur result="blurOut" stdDeviation="2.0"/><feColorMatrix in="blurOut" result="blurOut2" type="matrix" values="0 0 0 0 0 0 0 0 0 0 0 0 0 0 0 0 0 0 .4 0"/><feOffset dx="4.0" dy="4.0" in="blurOut2" result="blurOut3"/><feBlend in="SourceGraphic" in2="blurOut3" mode="normal"/></filter></defs><g><ellipse cx="57.5" cy="50.0957" fill="#000000" filter="url(#fryj58kx93wuz)" rx="10" ry="10" style="stroke:none;stroke-width:1.0;"/><rect fill="#FEFECE" filter="url(#fryj58kx93wuz)" height="35.0938" rx="12.5" ry="12.5" style="stroke:#A80036;stroke-width:1.5;" width="60" x="27.5" y="80.0957"/><text fill="#000000" font-family="sans-serif" font-size="12" lengthAdjust="spacing" textLength="40" x="37.5" y="102.5527">kochen</text><rect fill="#FEFECE" filter="url(#fryj58kx93wuz)" height="35.0938" rx="12.5" ry="12.5" style="stroke:#A80036;stroke-width:1.5;" width="73" x="21" y="330.6582"/><text fill="#000000" font-family="sans-serif" font-size="12" lengthAdjust="spacing" textLength="53" x="31" y="353.1152">abgießen</text><line style="stroke:#000000;stroke-width:2.0;" x1="15" x2="15" y1="12.4551" y2="517.9395"/><rect fill="#FAEBD7" height="505.4844" style="stroke:#FAEBD7;stroke-width:1.0;" width="106" x="104" y="12.4551"/><rect fill="#FEFECE" filter="url(#fryj58kx93wuz)" height="35.0938" rx="12.5" ry="12.5" style="stroke:#A80036;stroke-width:1.5;" width="67" x="121.5" y="135.1895"/><text fill="#000000" font-family="sans-serif" font-size="12" lengthAdjust="spacing" textLength="47" x="131.5" y="157.6465">einfüllen</text><rect fill="#FEFECE" filter="url(#fryj58kx93wuz)" height="50.1875" rx="12.5" ry="12.5" style="stroke:#A80036;stroke-width:1.5;" width="80" x="115" y="190.2832"/><text fill="#000000" font-family="sans-serif" font-size="12" lengthAdjust="spacing" textLength="40" x="134" y="212.7402">kochen</text><text fill="#000000" font-family="sans-serif" font-size="12" lengthAdjust="spacing" textLength="60" x="125" y="227.834">10 Minuten</text><rect fill="#FEFECE" filter="url(#fryj58kx93wuz)" height="50.1875" rx="12.5" ry="12.5" style="stroke:#A80036;stroke-width:1.5;" width="90" x="110" y="260.4707"/><text fill="#000000" font-family="sans-serif" font-size="12" lengthAdjust="spacing" textLength="37" x="132" y="282.9277">warten</text><text fill="#000000" font-family="sans-serif" font-size="12" lengthAdjust="spacing" textLength="67" x="123" y="298.0215">[bis aldente]</text><rect fill="#FEFECE" filter="url(#fryj58kx93wuz)" height="35.0938" rx="12.5" ry="12.5" style="stroke:#A80036;stroke-width:1.5;" width="71" x="119.5" y="385.752"/><text fill="#000000" font-family="sans-serif" font-size="12" lengthAdjust="spacing" textLength="51" x="129.5" y="408.209">anrichten</text><rect fill="#FEFECE" filter="url(#fryj58kx93wuz)" height="35.0938" rx="12.5" ry="12.5" style="stroke:#A80036;stroke-width:1.5;" width="71" x="119.5" y="440.8457"/><text fill="#000000" font-family="sans-serif" font-size="12" lengthAdjust="spacing" textLength="51" x="129.5" y="463.3027">servieren</text><ellipse cx="155" cy="506.9395" fill="#FFFFFF" filter="url(#fryj58kx93wuz)" rx="11" ry="11" style="stroke:#000000;stroke-width:1.0;"/><ellipse cx="155" cy="506.9395" fill="#000000" rx="6" ry="6" style="stroke:#7F7F7F;stroke-width:1.0;"/><line style="stroke:#000000;stroke-width:2.0;" x1="104" x2="104" y1="12.4551" y2="517.9395"/><line style="stroke:#000000;stroke-width:2.0;" x1="210" x2="210" y1="12.4551" y2="517.9395"/><line style="stroke:#A80036;stroke-width:1.5;" x1="57.5" x2="57.5" y1="60.0957" y2="80.0957"/><polygon fill="#A80036" points="53.5,70.0957,57.5,80.0957,61.5,70.0957,57.5,74.0957" style="stroke:#A80036;stroke-width:1.0;"/><line style="stroke:#A80036;stroke-width:1.5;" x1="155" x2="155" y1="170.2832" y2="190.2832"/><polygon fill="#A80036" points="151,180.2832,155,190.2832,159,180.2832,155,184.2832" style="stroke:#A80036;stroke-width:1.0;"/><line style="stroke:#A80036;stroke-width:1.5;" x1="155" x2="155" y1="240.4707" y2="260.4707"/><polygon fill="#A80036" points="151,250.4707,155,260.4707,159,250.4707,155,254.4707" style="stroke:#A80036;stroke-width:1.0;"/><line style="stroke:#A80036;stroke-width:1.5;" x1="155" x2="155" y1="420.8457" y2="440.8457"/><polygon fill="#A80036" points="151,430.8457,155,440.8457,159,430.8457,155,434.8457" style="stroke:#A80036;stroke-width:1.0;"/><line style="stroke:#A80036;stroke-width:1.5;" x1="155" x2="155" y1="475.9395" y2="495.9395"/><polygon fill="#A80036" points="151,485.9395,155,495.9395,159,485.9395,155,489.9395" style="stroke:#A80036;stroke-width:1.0;"/><line style="stroke:#A80036;stroke-width:1.5;" x1="57.5" x2="57.5" y1="115.1895" y2="120.1895"/><line style="stroke:#A80036;stroke-width:1.5;" x1="57.5" x2="155" y1="120.1895" y2="120.1895"/><line style="stroke:#A80036;stroke-width:1.5;" x1="155" x2="155" y1="120.1895" y2="135.1895"/><polygon fill="#A80036" points="151,125.1895,155,135.1895,159,125.1895,155,129.1895" style="stroke:#A80036;stroke-width:1.0;"/><line style="stroke:#A80036;stroke-width:1.5;" x1="155" x2="155" y1="310.6582" y2="315.6582"/><line style="stroke:#A80036;stroke-width:1.5;" x1="155" x2="57.5" y1="315.6582" y2="315.6582"/><line style="stroke:#A80036;stroke-width:1.5;" x1="57.5" x2="57.5" y1="315.6582" y2="330.6582"/><polygon fill="#A80036" points="53.5,320.6582,57.5,330.6582,61.5,320.6582,57.5,324.6582" style="stroke:#A80036;stroke-width:1.0;"/><line style="stroke:#A80036;stroke-width:1.5;" x1="57.5" x2="57.5" y1="365.752" y2="370.752"/><line style="stroke:#A80036;stroke-width:1.5;" x1="57.5" x2="155" y1="370.752" y2="370.752"/><line style="stroke:#A80036;stroke-width:1.5;" x1="155" x2="155" y1="370.752" y2="385.752"/><polygon fill="#A80036" points="151,375.752,155,385.752,159,375.752,155,379.752" style="stroke:#A80036;stroke-width:1.0;"/><text fill="#000000" font-family="sans-serif" font-size="18" lengthAdjust="spacing" textLength="61" x="29" y="31.1406">Wasser</text><text fill="#000000" font-family="sans-serif" font-size="18" lengthAdjust="spacing" textLength="66" x="124" y="31.1406">Spagetti</text><!--MD5=[86299c36b3ed56b2366ba36b37d740f7]
@startuml
|Wasser|
start
:kochen;
|#AntiqueWhite|Spagetti|
:einf&#252;llen;
:   kochen\n10 Minuten;
:    warten\n [bis aldente];
|Wasser|
:abgie&#223;en;
|Spagetti|
:anrichten;
:servieren;
stop
@enduml

PlantUML version 1.2022.1(Tue Feb 01 19:19:58 CET 2022)
(LGPL source distribution)
Java Runtime: Java(TM) SE Runtime Environment
JVM: Java HotSpot(TM) Client VM
Default Encoding: Cp1252
Language: de
Country: DE
--></g></svg>