<?xml version="1.0" encoding="UTF-8" standalone="no"?><svg xmlns="http://www.w3.org/2000/svg" xmlns:xlink="http://www.w3.org/1999/xlink" contentScriptType="application/ecmascript" contentStyleType="text/css" height="118px" preserveAspectRatio="none" style="width:307px;height:118px;background:#FFFFFF;" version="1.1" viewBox="0 0 307 118" width="307px" zoomAndPan="magnify"><defs><filter height="300%" id="f4tpoobg2frh0" width="300%" x="-1" y="-1"><feGaussianBlur result="blurOut" stdDeviation="2.0"/><feColorMatrix in="blurOut" result="blurOut2" type="matrix" values="0 0 0 0 0 0 0 0 0 0 0 0 0 0 0 0 0 0 .4 0"/><feOffset dx="4.0" dy="4.0" in="blurOut2" result="blurOut3"/><feBlend in="SourceGraphic" in2="blurOut3" mode="normal"/></filter></defs><g><path d="M10,15.3711 L10,41.7227 A0,0 0 0 0 10,41.7227 L77,41.7227 A0,0 0 0 0 77,41.7227 L77,33.3711 L97,28.5469 L77,25.3711 L77,25.3711 L67,15.3711 L10,15.3711 A0,0 0 0 0 10,15.3711 " fill="#FBFB77" filter="url(#f4tpoobg2frh0)" style="stroke:#A80036;stroke-width:1.0;"/><path d="M67,15.3711 L67,25.3711 L77,25.3711 L67,15.3711 " fill="#FBFB77" style="stroke:#A80036;stroke-width:1.0;"/><text fill="#000000" font-family="sans-serif" font-size="13" lengthAdjust="spacing" textLength="46" x="16" y="33.8662">Getränk</text><rect fill="#FEFECE" filter="url(#f4tpoobg2frh0)" height="35.0938" rx="12.5" ry="12.5" style="stroke:#A80036;stroke-width:1.5;" width="117" x="97" y="11"/><text fill="#000000" font-family="sans-serif" font-size="12" lengthAdjust="spacing" textLength="97" x="107" y="33.457">Getränk bestellen</text><path d="M227.5,70.4648 L227.5,79.6406 L207.5,83.6406 L227.5,87.6406 L227.5,96.8164 A0,0 0 0 0 227.5,96.8164 L295.5,96.8164 A0,0 0 0 0 295.5,96.8164 L295.5,80.4648 L285.5,70.4648 L227.5,70.4648 A0,0 0 0 0 227.5,70.4648 " fill="#FBFB77" filter="url(#f4tpoobg2frh0)" style="stroke:#A80036;stroke-width:1.0;"/><path d="M285.5,70.4648 L285.5,80.4648 L295.5,80.4648 L285.5,70.4648 " fill="#FBFB77" style="stroke:#A80036;stroke-width:1.0;"/><text fill="#000000" font-family="sans-serif" font-size="13" lengthAdjust="spacing" textLength="47" x="233.5" y="88.96">Cocktail</text><rect fill="#FEFECE" filter="url(#f4tpoobg2frh0)" height="35.0938" rx="12.5" ry="12.5" style="stroke:#A80036;stroke-width:1.5;" width="104" x="103.5" y="66.0938"/><text fill="#000000" font-family="sans-serif" font-size="12" lengthAdjust="spacing" textLength="84" x="113.5" y="88.5508">Cocktail trinken</text><line style="stroke:#A80036;stroke-width:1.5;" x1="155.5" x2="155.5" y1="46.0938" y2="66.0938"/><polygon fill="#A80036" points="151.5,56.0938,155.5,66.0938,159.5,56.0938,155.5,60.0938" style="stroke:#A80036;stroke-width:1.0;"/><!--MD5=[dd1cc765876004e3f574949e3b0a7e80]
@startuml
:Getr&#228;nk bestellen;
note left: Getr&#228;nk
:Cocktail trinken;
note right: Cocktail
@enduml

PlantUML version 1.2022.1(Tue Feb 01 19:19:58 CET 2022)
(LGPL source distribution)
Java Runtime: Java(TM) SE Runtime Environment
JVM: Java HotSpot(TM) Client VM
Default Encoding: Cp1252
Language: de
Country: DE
--></g></svg>