<?xml version="1.0" encoding="UTF-8" standalone="no"?><svg xmlns="http://www.w3.org/2000/svg" xmlns:xlink="http://www.w3.org/1999/xlink" contentScriptType="application/ecmascript" contentStyleType="text/css" height="296px" preserveAspectRatio="none" style="width:399px;height:296px;background:#FFFFFF;" version="1.1" viewBox="0 0 399 296" width="399px" zoomAndPan="magnify"><defs><filter height="300%" id="f12c6gf5vi72zu" width="300%" x="-1" y="-1"><feGaussianBlur result="blurOut" stdDeviation="2.0"/><feColorMatrix in="blurOut" result="blurOut2" type="matrix" values="0 0 0 0 0 0 0 0 0 0 0 0 0 0 0 0 0 0 .4 0"/><feOffset dx="4.0" dy="4.0" in="blurOut2" result="blurOut3"/><feBlend in="SourceGraphic" in2="blurOut3" mode="normal"/></filter></defs><g><rect fill="#FFFFFF" filter="url(#f12c6gf5vi72zu)" height="160.4063" style="stroke:#A80036;stroke-width:1.0;" width="10" x="182" y="73.9609"/><rect fill="#FFFFFF" filter="url(#f12c6gf5vi72zu)" height="84.7031" style="stroke:#A80036;stroke-width:1.0;" width="10" x="187" y="112.3125"/><line style="stroke:#A80036;stroke-width:1.0;stroke-dasharray:5.0,5.0;" x1="187" x2="187" y1="41.6094" y2="252.3672"/><rect fill="#FEFECE" filter="url(#f12c6gf5vi72zu)" height="31.6094" style="stroke:#A80036;stroke-width:1.5;" width="46" x="162" y="5"/><text fill="#000000" font-family="sans-serif" font-size="14" lengthAdjust="spacing" textLength="32" x="169" y="26.5332">Krise</text><rect fill="#FEFECE" filter="url(#f12c6gf5vi72zu)" height="31.6094" style="stroke:#A80036;stroke-width:1.5;" width="46" x="162" y="251.3672"/><text fill="#000000" font-family="sans-serif" font-size="14" lengthAdjust="spacing" textLength="32" x="169" y="272.9004">Krise</text><rect fill="#FFFFFF" filter="url(#f12c6gf5vi72zu)" height="160.4063" style="stroke:#A80036;stroke-width:1.0;" width="10" x="182" y="73.9609"/><rect fill="#FFFFFF" filter="url(#f12c6gf5vi72zu)" height="84.7031" style="stroke:#A80036;stroke-width:1.0;" width="10" x="187" y="112.3125"/><polygon fill="#A80036" points="170,69.9609,180,73.9609,170,77.9609,174,73.9609" style="stroke:#A80036;stroke-width:1.0;"/><line style="stroke:#A80036;stroke-width:1.0;" x1="0" x2="176" y1="73.9609" y2="73.9609"/><text fill="#000000" font-family="sans-serif" font-size="13" lengthAdjust="spacing" textLength="163" x="7" y="69.1045">Empfang der Krisenmeldung</text><line style="stroke:#A80036;stroke-width:1.0;" x1="192" x2="239" y1="99.3125" y2="99.3125"/><line style="stroke:#A80036;stroke-width:1.0;" x1="239" x2="239" y1="99.3125" y2="112.3125"/><line style="stroke:#A80036;stroke-width:1.0;" x1="198" x2="239" y1="112.3125" y2="112.3125"/><polygon fill="#A80036" points="208,108.3125,198,112.3125,208,116.3125,204,112.3125" style="stroke:#A80036;stroke-width:1.0;"/><text fill="#000000" font-family="sans-serif" font-size="13" lengthAdjust="spacing" textLength="188" x="204" y="94.4561">Einberufung von Krisensitzungen</text><line style="stroke:#A80036;stroke-width:1.0;" x1="197" x2="239" y1="147.6641" y2="147.6641"/><line style="stroke:#A80036;stroke-width:1.0;" x1="239" x2="239" y1="147.6641" y2="160.6641"/><line style="stroke:#A80036;stroke-width:1.0;" x1="198" x2="239" y1="160.6641" y2="160.6641"/><polygon fill="#A80036" points="208,156.6641,198,160.6641,208,164.6641,204,160.6641" style="stroke:#A80036;stroke-width:1.0;"/><text fill="#000000" font-family="sans-serif" font-size="13" lengthAdjust="spacing" textLength="98" x="204" y="142.8076">Risiken abwägen</text><line style="stroke:#A80036;stroke-width:1.0;" x1="197" x2="239" y1="196.0156" y2="196.0156"/><line style="stroke:#A80036;stroke-width:1.0;" x1="239" x2="239" y1="196.0156" y2="209.0156"/><line style="stroke:#A80036;stroke-width:1.0;" x1="192" x2="239" y1="209.0156" y2="209.0156"/><polygon fill="#A80036" points="202,205.0156,192,209.0156,202,213.0156,198,209.0156" style="stroke:#A80036;stroke-width:1.0;"/><text fill="#000000" font-family="sans-serif" font-size="13" lengthAdjust="spacing" textLength="129" x="204" y="191.1592">Krisenplanentwicklung</text><polygon fill="#A80036" points="11,230.3672,1,234.3672,11,238.3672,7,234.3672" style="stroke:#A80036;stroke-width:1.0;"/><line style="stroke:#A80036;stroke-width:1.0;" x1="5" x2="186" y1="234.3672" y2="234.3672"/><text fill="#000000" font-family="sans-serif" font-size="13" lengthAdjust="spacing" textLength="105" x="17" y="229.5107">Krisenbewältigung</text><!--MD5=[397bd914209ac600359be5ca049277fa]
@startuml
[-> Krise: Empfang der Krisenmeldung
activate Krise
Krise -> Krise: Einberufung von Krisensitzungen
activate Krise
Krise ->Krise : Risiken abw&#228;gen
Krise ->Krise : Krisenplanentwicklung
deactivate Krise
[<- Krise: Krisenbew&#228;ltigung
deactivate Krise
@enduml

PlantUML version 1.2022.1(Tue Feb 01 19:19:58 CET 2022)
(LGPL source distribution)
Java Runtime: Java(TM) SE Runtime Environment
JVM: Java HotSpot(TM) Client VM
Default Encoding: Cp1252
Language: de
Country: DE
--></g></svg>