<?xml version="1.0" encoding="UTF-8" standalone="no"?><svg xmlns="http://www.w3.org/2000/svg" xmlns:xlink="http://www.w3.org/1999/xlink" contentScriptType="application/ecmascript" contentStyleType="text/css" height="498px" preserveAspectRatio="none" style="width:530px;height:498px;background:#FFFFFF;" version="1.1" viewBox="0 0 530 498" width="530px" zoomAndPan="magnify"><defs><filter height="300%" id="f135n2vw28m0ne" width="300%" x="-1" y="-1"><feGaussianBlur result="blurOut" stdDeviation="2.0"/><feColorMatrix in="blurOut" result="blurOut2" type="matrix" values="0 0 0 0 0 0 0 0 0 0 0 0 0 0 0 0 0 0 .4 0"/><feOffset dx="4.0" dy="4.0" in="blurOut2" result="blurOut3"/><feBlend in="SourceGraphic" in2="blurOut3" mode="normal"/></filter></defs><g><rect fill="#FFFFFF" filter="url(#f135n2vw28m0ne)" height="304.5156" style="stroke:#A80036;stroke-width:1.0;" width="10" x="15" y="99.6094"/><line style="stroke:#A80036;stroke-width:1.0;stroke-dasharray:5.0,5.0;" x1="20" x2="20" y1="89.6094" y2="413.125"/><line style="stroke:#A80036;stroke-width:1.0;stroke-dasharray:5.0,5.0;" x1="95" x2="95" y1="89.6094" y2="413.125"/><line style="stroke:#A80036;stroke-width:1.0;stroke-dasharray:5.0,5.0;" x1="197" x2="197" y1="89.6094" y2="413.125"/><line style="stroke:#A80036;stroke-width:1.0;stroke-dasharray:5.0,5.0;" x1="289" x2="289" y1="89.6094" y2="413.125"/><line style="stroke:#A80036;stroke-width:1.0;stroke-dasharray:5.0,5.0;" x1="391" x2="391" y1="89.6094" y2="413.125"/><line style="stroke:#A80036;stroke-width:1.0;stroke-dasharray:5.0,5.0;" x1="490" x2="490" y1="89.6094" y2="413.125"/><text fill="#000000" font-family="sans-serif" font-size="14" lengthAdjust="spacing" textLength="18" x="8" y="86.5332">Ich</text><ellipse cx="20" cy="15" fill="#FEFECE" filter="url(#f135n2vw28m0ne)" rx="8" ry="8" style="stroke:#A80036;stroke-width:2.0;"/><path d="M20,23 L20,50 M7,31 L33,31 M20,50 L7,65 M20,50 L33,65 " fill="none" filter="url(#f135n2vw28m0ne)" style="stroke:#A80036;stroke-width:2.0;"/><text fill="#000000" font-family="sans-serif" font-size="14" lengthAdjust="spacing" textLength="18" x="8" y="426.6582">Ich</text><ellipse cx="20" cy="439.7344" fill="#FEFECE" filter="url(#f135n2vw28m0ne)" rx="8" ry="8" style="stroke:#A80036;stroke-width:2.0;"/><path d="M20,447.7344 L20,474.7344 M7,455.7344 L33,455.7344 M20,474.7344 L7,489.7344 M20,474.7344 L33,489.7344 " fill="none" filter="url(#f135n2vw28m0ne)" style="stroke:#A80036;stroke-width:2.0;"/><rect fill="#FEFECE" filter="url(#f135n2vw28m0ne)" height="31.6094" style="stroke:#A80036;stroke-width:1.5;" width="82" x="52" y="53"/><text fill="#000000" font-family="sans-serif" font-size="14" lengthAdjust="spacing" textLength="68" x="59" y="74.5332">Kaffeefilter</text><rect fill="#FEFECE" filter="url(#f135n2vw28m0ne)" height="31.6094" style="stroke:#A80036;stroke-width:1.5;" width="82" x="52" y="412.125"/><text fill="#000000" font-family="sans-serif" font-size="14" lengthAdjust="spacing" textLength="68" x="59" y="433.6582">Kaffeefilter</text><rect fill="#FEFECE" filter="url(#f135n2vw28m0ne)" height="31.6094" style="stroke:#A80036;stroke-width:1.5;" width="94" x="148" y="53"/><text fill="#000000" font-family="sans-serif" font-size="14" lengthAdjust="spacing" textLength="80" x="155" y="74.5332">Kaffeepulver</text><rect fill="#FEFECE" filter="url(#f135n2vw28m0ne)" height="31.6094" style="stroke:#A80036;stroke-width:1.5;" width="94" x="148" y="412.125"/><text fill="#000000" font-family="sans-serif" font-size="14" lengthAdjust="spacing" textLength="80" x="155" y="433.6582">Kaffeepulver</text><rect fill="#FEFECE" filter="url(#f135n2vw28m0ne)" height="31.6094" style="stroke:#A80036;stroke-width:1.5;" width="62" x="256" y="53"/><text fill="#000000" font-family="sans-serif" font-size="14" lengthAdjust="spacing" textLength="48" x="263" y="74.5332">Wasser</text><rect fill="#FEFECE" filter="url(#f135n2vw28m0ne)" height="31.6094" style="stroke:#A80036;stroke-width:1.5;" width="62" x="256" y="412.125"/><text fill="#000000" font-family="sans-serif" font-size="14" lengthAdjust="spacing" textLength="48" x="263" y="433.6582">Wasser</text><rect fill="#FEFECE" filter="url(#f135n2vw28m0ne)" height="31.6094" style="stroke:#A80036;stroke-width:1.5;" width="115" x="332" y="53"/><text fill="#000000" font-family="sans-serif" font-size="14" lengthAdjust="spacing" textLength="101" x="339" y="74.5332">Kaffeemaschine</text><rect fill="#FEFECE" filter="url(#f135n2vw28m0ne)" height="31.6094" style="stroke:#A80036;stroke-width:1.5;" width="115" x="332" y="412.125"/><text fill="#000000" font-family="sans-serif" font-size="14" lengthAdjust="spacing" textLength="101" x="339" y="433.6582">Kaffeemaschine</text><rect fill="#FEFECE" filter="url(#f135n2vw28m0ne)" height="31.6094" style="stroke:#A80036;stroke-width:1.5;" width="55" x="461" y="53"/><text fill="#000000" font-family="sans-serif" font-size="14" lengthAdjust="spacing" textLength="41" x="468" y="74.5332">Kaffee</text><rect fill="#FEFECE" filter="url(#f135n2vw28m0ne)" height="31.6094" style="stroke:#A80036;stroke-width:1.5;" width="55" x="461" y="412.125"/><text fill="#000000" font-family="sans-serif" font-size="14" lengthAdjust="spacing" textLength="41" x="468" y="433.6582">Kaffee</text><rect fill="#FFFFFF" filter="url(#f135n2vw28m0ne)" height="304.5156" style="stroke:#A80036;stroke-width:1.0;" width="10" x="15" y="99.6094"/><polygon fill="#A80036" points="83,117.9609,93,121.9609,83,125.9609,87,121.9609" style="stroke:#A80036;stroke-width:1.0;"/><line style="stroke:#A80036;stroke-width:1.0;" x1="25" x2="89" y1="121.9609" y2="121.9609"/><text fill="#000000" font-family="sans-serif" font-size="13" lengthAdjust="spacing" textLength="46" x="32" y="117.1045">nehmen</text><polygon fill="#A80036" points="185,148.3125,195,152.3125,185,156.3125,189,152.3125" style="stroke:#A80036;stroke-width:1.0;"/><line style="stroke:#A80036;stroke-width:1.0;" x1="25" x2="191" y1="152.3125" y2="152.3125"/><text fill="#000000" font-family="sans-serif" font-size="13" lengthAdjust="spacing" textLength="46" x="32" y="147.4561">nehmen</text><polygon fill="#A80036" points="277,178.6641,287,182.6641,277,186.6641,281,182.6641" style="stroke:#A80036;stroke-width:1.0;"/><line style="stroke:#A80036;stroke-width:1.0;" x1="25" x2="283" y1="182.6641" y2="182.6641"/><text fill="#000000" font-family="sans-serif" font-size="13" lengthAdjust="spacing" textLength="46" x="32" y="177.8076">nehmen</text><polygon fill="#A80036" points="379.5,209.0156,389.5,213.0156,379.5,217.0156,383.5,213.0156" style="stroke:#A80036;stroke-width:1.0;"/><line style="stroke:#A80036;stroke-width:1.0;" x1="289" x2="385.5" y1="213.0156" y2="213.0156"/><text fill="#000000" font-family="sans-serif" font-size="13" lengthAdjust="spacing" textLength="60" x="296" y="208.1592">einfüllen</text><polygon fill="#A80036" points="379.5,239.3672,389.5,243.3672,379.5,247.3672,383.5,243.3672" style="stroke:#A80036;stroke-width:1.0;"/><line style="stroke:#A80036;stroke-width:1.0;" x1="95" x2="385.5" y1="243.3672" y2="243.3672"/><text fill="#000000" font-family="sans-serif" font-size="13" lengthAdjust="spacing" textLength="48" x="102" y="238.5107">einlegen</text><polygon fill="#A80036" points="379.5,269.7188,389.5,273.7188,379.5,277.7188,383.5,273.7188" style="stroke:#A80036;stroke-width:1.0;"/><line style="stroke:#A80036;stroke-width:1.0;" x1="197" x2="385.5" y1="273.7188" y2="273.7188"/><text fill="#000000" font-family="sans-serif" font-size="13" lengthAdjust="spacing" textLength="54" x="204" y="268.8623">einfuellen</text><polygon fill="#A80036" points="379.5,300.0703,389.5,304.0703,379.5,308.0703,383.5,304.0703" style="stroke:#A80036;stroke-width:1.0;"/><line style="stroke:#A80036;stroke-width:1.0;" x1="25" x2="385.5" y1="304.0703" y2="304.0703"/><text fill="#000000" font-family="sans-serif" font-size="13" lengthAdjust="spacing" textLength="66" x="32" y="299.2139">einschalten</text><polygon fill="#A80036" points="478.5,330.4219,488.5,334.4219,478.5,338.4219,482.5,334.4219" style="stroke:#A80036;stroke-width:1.0;"/><line style="stroke:#A80036;stroke-width:1.0;" x1="391.5" x2="484.5" y1="334.4219" y2="334.4219"/><text fill="#000000" font-family="sans-serif" font-size="13" lengthAdjust="spacing" textLength="32" x="398.5" y="329.5654">kocht</text><polygon fill="#A80036" points="36,360.7734,26,364.7734,36,368.7734,32,364.7734" style="stroke:#A80036;stroke-width:1.0;"/><line style="stroke:#A80036;stroke-width:1.0;stroke-dasharray:2.0,2.0;" x1="30" x2="390.5" y1="364.7734" y2="364.7734"/><text fill="#000000" font-family="sans-serif" font-size="13" lengthAdjust="spacing" textLength="36" x="42" y="359.917">Signal</text><polygon fill="#A80036" points="36,391.125,26,395.125,36,399.125,32,395.125" style="stroke:#A80036;stroke-width:1.0;"/><line style="stroke:#A80036;stroke-width:1.0;" x1="30" x2="489.5" y1="395.125" y2="395.125"/><text fill="#000000" font-family="sans-serif" font-size="13" lengthAdjust="spacing" textLength="39" x="42" y="390.2686">trinken</text><!--MD5=[5c46917bf55994d2b14c1c08b1d22ff2]
@startuml
actor Ich
activate Ich
Ich -> Kaffeefilter : nehmen
Ich -> Kaffeepulver : nehmen
Ich -> Wasser : nehmen
Wasser -> Kaffeemaschine : einfüllen
Kaffeefilter -> Kaffeemaschine : einlegen
Kaffeepulver -> Kaffeemaschine : einfuellen
Ich -> Kaffeemaschine : einschalten
Kaffeemaschine -> Kaffee :kocht
Kaffeemaschine - -> Ich : Signal
Kaffee -> Ich : trinken
@enduml

PlantUML version 1.2022.1(Tue Feb 01 19:19:58 CET 2022)
(LGPL source distribution)
Java Runtime: Java(TM) SE Runtime Environment
JVM: Java HotSpot(TM) Client VM
Default Encoding: Cp1252
Language: de
Country: DE
--></g></svg>